<svg xmlns="http://www.w3.org/2000/svg" width="40" height="40" viewBox="0 0 40 40" fill="none">
  <path d="M11 30.5 8 36.5l-.2-6.1A8 8 0 0 1 4 23.5v-10A8 8 0 0 1 12 5.5h16a8 8 0 0 1 8 8v10a8 8 0 0 1-8 8z" fill="#2563eb"/>
  <circle cx="12.5" cy="19" r="2.1" fill="#e84393" opacity=".6"/>
  <circle cx="27.5" cy="19" r="2.1" fill="#e84393" opacity=".6"/>
  <circle cx="15.6" cy="16" r="2.5" fill="#fff"/>
  <circle cx="24.4" cy="16" r="2.5" fill="#fff"/>
  <path d="M14.5 21.5c1.5 2.2 3.4 3.2 5.5 3.2s4-1 5.5-3.2" stroke="#fff" stroke-width="2.4" stroke-linecap="round"/>
</svg>
